<?xml version="1.0" ?><svg style="enable-background:new 0 0 610.836 683.008;" version="1.1" viewBox="0 0 610.836 683.008" xml:space="preserve" xmlns="http://www.w3.org/2000/svg" xmlns:xlink="http://www.w3.org/1999/xlink"><g id="_x38_-Snowflake"><g><g><circle cx="305.418" cy="72.282" r="50.863" style="fill:#03A8F3;"/><circle cx="305.418" cy="610.727" r="50.863" style="fill:#03A8F3;"/></g><g><circle cx="72.264" cy="206.893" r="50.863" style="fill:#03A8F3;"/><circle cx="538.571" cy="476.116" r="50.863" style="fill:#03A8F3;"/></g><g><circle cx="72.264" cy="476.116" r="50.863" style="fill:#03A8F3;"/><circle cx="538.571" cy="206.893" r="50.863" style="fill:#03A8F3;"/></g><g><circle cx="305.418" cy="341.504" r="80.31" style="fill:#03A8F3;"/><path d="M574.711,413.522c-28.059-16.203-62.58-11.382-85.219,9.532l-20.012-11.555l20.132-5.396     c11.424-3.064,18.206-14.807,15.142-26.231c-3.059-11.424-14.823-18.195-26.226-15.142l-61.503,16.48l-14.807-8.549     c3.171-9.83,4.925-20.287,4.925-31.157c0-10.87-1.754-21.327-4.925-31.157l14.812-8.554l61.503,16.48     c1.856,0.497,3.723,0.737,5.558,0.737c9.453,0,18.106-6.316,20.668-15.879c3.064-11.424-3.717-23.167-15.142-26.231l-20.13-5.396     l20.104-11.607c13.474,12.433,31.086,19.257,49.106,19.257c12.25,0,24.663-3.111,36.014-9.667     c34.513-19.926,46.382-64.216,26.456-98.735c-19.931-34.508-64.216-46.387-98.735-26.456     c-28.059,16.203-41.148,48.505-34.356,78.569l-20.012,11.555l5.393-20.135c3.064-11.424-3.717-23.162-15.142-26.226     c-11.424-3.059-23.173,3.717-26.226,15.142l-16.475,61.498l-14.927,8.617c-14.038-15.476-32.699-26.671-53.853-31.225v-17.097     l45.023-45.028c8.366-8.36,8.366-21.923,0-30.283c-8.366-8.366-21.928-8.366-30.283,0l-14.739,14.739v-23.099     c29.431-9.15,50.863-36.636,50.863-69.042C377.697,32.427,345.275,0,305.418,0s-72.279,32.427-72.279,72.279     c0,32.406,21.432,59.892,50.863,69.042v23.105l-14.739-14.739c-8.366-8.36-21.923-8.36-30.289,0.005     c-8.36,8.36-8.36,21.923,0.005,30.283l45.023,45.017v17.097c-21.154,4.554-39.815,15.748-53.853,31.225l-14.93-8.617     L198.741,203.2c-3.064-11.429-14.818-18.206-26.226-15.147c-11.424,3.059-18.206,14.802-15.142,26.231l5.396,20.13l-20.009-11.55     c6.792-30.064-6.298-62.365-34.356-78.569c-34.508-19.926-78.804-8.052-98.735,26.456c-19.926,34.519-8.057,78.809,26.456,98.735     c11.351,6.557,23.763,9.667,36.014,9.667c18.017,0,35.63-6.823,49.106-19.257l20.114,11.612l-20.135,5.396     c-11.424,3.064-18.206,14.807-15.142,26.231c2.562,9.568,11.215,15.874,20.668,15.874c1.835,0,3.702-0.235,5.558-0.732     l61.505-16.485l14.804,8.549c-3.171,9.83-4.925,20.292-4.925,31.162c0,10.87,1.754,21.332,4.925,31.157l-14.812,8.554     l-61.503-16.48c-11.419-3.059-23.173,3.717-26.226,15.142c-3.064,11.424,3.717,23.167,15.142,26.231l20.132,5.396l-20.004,11.55     c-22.639-20.914-57.163-25.735-85.222-9.532c-34.513,19.926-46.382,64.216-26.456,98.735     c13.374,23.162,37.718,36.124,62.721,36.124c12.25,0,24.663-3.116,36.014-9.667c28.059-16.203,41.148-48.505,34.356-78.569     l20.012-11.555l-5.393,20.135c-3.064,11.424,3.717,23.162,15.142,26.226c1.856,0.497,3.723,0.732,5.558,0.732     c9.453,0,18.106-6.306,20.668-15.874l16.475-61.498l14.927-8.622c14.039,15.482,32.699,26.676,53.853,31.23v17.097     l-45.023,45.028c-8.366,8.36-8.366,21.923,0,30.283c4.183,4.183,9.662,6.274,15.142,6.274c5.479,0,10.964-2.091,15.142-6.274     l14.739-14.739v23.099c-29.431,9.15-50.863,36.636-50.863,69.042c0,39.852,32.422,72.279,72.279,72.279     s72.279-32.427,72.279-72.279c0-32.406-21.432-59.892-50.863-69.042v-23.105l14.739,14.739c8.366,8.36,21.923,8.36,30.289-0.005     c8.36-8.36,8.36-21.923-0.005-30.283l-45.023-45.017v-17.097c21.154-4.554,39.815-15.748,53.853-31.23l14.927,8.622l16.48,61.498     c2.562,9.573,11.215,15.884,20.668,15.884c1.835,0,3.702-0.241,5.558-0.737c11.424-3.059,18.206-14.802,15.142-26.231     l-5.396-20.13l20.009,11.55c-6.792,30.064,6.298,62.365,34.356,78.569c11.351,6.551,23.764,9.667,36.014,9.667     c24.997,0,49.346-12.961,62.721-36.124C621.093,477.738,609.225,433.447,574.711,413.522z M523.849,181.392     c4.622-2.672,9.678-3.937,14.671-3.937c10.185,0,20.109,5.281,25.557,14.713c8.115,14.065,3.284,32.108-10.781,40.228     c-14.054,8.115-32.108,3.283-40.228-10.781C504.953,207.555,509.789,189.512,523.849,181.392z M57.54,232.396     c-14.065-8.12-18.896-26.163-10.781-40.223c5.448-9.437,15.372-14.718,25.557-14.718c4.993,0,10.049,1.265,14.671,3.937     c14.059,8.12,18.896,26.163,10.781,40.223C89.648,235.674,71.6,240.511,57.54,232.396z M86.987,501.616     c-14.049,8.12-32.108,3.283-40.228-10.776c-8.115-14.065-3.283-32.108,10.781-40.228c4.622-2.667,9.678-3.937,14.671-3.937     c10.185,0,20.109,5.281,25.557,14.718C105.883,475.453,101.047,493.497,86.987,501.616z M305.418,42.832     c16.24,0,29.447,13.212,29.447,29.447c0,16.24-13.207,29.447-29.447,29.447c-16.24,0-29.447-13.207-29.447-29.447     C275.971,56.044,289.178,42.832,305.418,42.832z M305.418,640.177c-16.24,0-29.447-13.212-29.447-29.447     c0-16.24,13.207-29.447,29.447-29.447c16.24,0,29.447,13.207,29.447,29.447C334.865,626.964,321.658,640.177,305.418,640.177z      M305.418,400.398c-32.474,0-58.894-26.42-58.894-58.894s26.42-58.894,58.894-58.894s58.894,26.42,58.894,58.894     S337.892,400.398,305.418,400.398z M564.077,490.835c-8.12,14.065-26.163,18.901-40.228,10.781     c-14.059-8.12-18.896-26.163-10.781-40.223c8.115-14.059,26.174-18.896,40.228-10.781     C567.36,458.732,572.191,476.776,564.077,490.835z" style="fill:#3F51B4;"/><g><path d="M348.25,72.279c0,32.406-21.432,59.892-50.863,69.042v23.099l14.739-14.739      c4.068-4.073,9.372-6.128,14.708-6.232v-2.128c29.431-9.15,50.863-36.636,50.863-69.042C377.697,32.427,345.275,0,305.418,0      c-5.045,0-9.968,0.528-14.723,1.516C323.514,8.334,348.25,37.473,348.25,72.279z" style="fill:#303F9E;"/><path d="M571.721,170.752c19.926,34.519,8.057,78.809-26.456,98.735      c-6.86,3.963-14.125,6.52-21.492,8.041c4.891,1.035,9.887,1.626,14.925,1.626c12.25,0,24.663-3.111,36.014-9.667      c34.513-19.926,46.382-64.216,26.456-98.735c-16.015-27.727-47.744-40.798-77.505-34.55      C543.186,140.233,560.992,152.175,571.721,170.752z" style="fill:#303F9E;"/><path d="M326.834,541.688v-2.138c-5.333-0.105-10.637-2.159-14.708-6.227l-14.739-14.739v23.105      c29.431,9.15,50.863,36.636,50.863,69.042c0,34.806-24.736,63.944-57.555,70.762c4.755,0.988,9.678,1.516,14.723,1.516      c39.857,0,72.279-32.427,72.279-72.279C377.697,578.324,356.265,550.837,326.834,541.688z" style="fill:#303F9E;"/><path d="M574.711,413.522c-15.861-9.16-33.74-11.388-50.416-8c7.189,1.537,14.269,4.131,20.969,8      c34.513,19.926,46.382,64.216,26.456,98.735c-10.708,18.545-28.485,30.414-47.966,34.461c4.878,1.02,9.79,1.663,14.692,1.663      c24.997,0,49.346-12.961,62.721-36.124C621.093,477.738,609.225,433.447,574.711,413.522z" style="fill:#303F9E;"/></g></g></g></g><g id="Layer_1"/></svg>